<mxfile host="app.diagrams.net" modified="2022-12-28T10:16:36.266Z" agent="5.0 (Windows NT 10.0; Win64; x64) AppleWebKit/537.36 (KHTML, like Gecko) Chrome/108.0.0.0 Safari/537.36 Edg/108.0.1462.54" version="20.7.4" etag="gwG-XKldIQQqD_99HI2e" type="github">
  <diagram id="vpMU1eWjaF5S27buUMpF" name="Страница 1">
    <mxGraphModel dx="3217" dy="2496" grid="1" gridSize="10" guides="1" tooltips="1" connect="1" arrows="1" fold="1" page="1" pageScale="1" pageWidth="827" pageHeight="1169" math="0" shadow="0">
      <root>
        <mxCell id="0" />
        <mxCell id="1" parent="0" />
        <mxCell id="yOCdOPUUsz1t5yYugyzH-2" style="edgeStyle=orthogonalEdgeStyle;rounded=0;orthogonalLoop=1;jettySize=auto;html=1;exitX=0;exitY=0.5;exitDx=0;exitDy=0;startArrow=block;startFill=1;endArrow=none;endFill=0;" edge="1" parent="1" source="yOCdOPUUsz1t5yYugyzH-10">
          <mxGeometry relative="1" as="geometry">
            <mxPoint x="510" y="545" as="targetPoint" />
            <Array as="points">
              <mxPoint x="510" y="545" />
            </Array>
          </mxGeometry>
        </mxCell>
        <mxCell id="yOCdOPUUsz1t5yYugyzH-3" value="Предметная область" style="edgeLabel;html=1;align=center;verticalAlign=middle;resizable=0;points=[];fontSize=15;" vertex="1" connectable="0" parent="yOCdOPUUsz1t5yYugyzH-2">
          <mxGeometry x="0.2584" y="1" relative="1" as="geometry">
            <mxPoint x="-23" y="-15" as="offset" />
          </mxGeometry>
        </mxCell>
        <mxCell id="yOCdOPUUsz1t5yYugyzH-4" style="edgeStyle=orthogonalEdgeStyle;rounded=0;orthogonalLoop=1;jettySize=auto;html=1;exitX=0.5;exitY=0;exitDx=0;exitDy=0;startArrow=block;startFill=1;endArrow=none;endFill=0;" edge="1" parent="1" source="yOCdOPUUsz1t5yYugyzH-10">
          <mxGeometry relative="1" as="geometry">
            <mxPoint x="804" y="310" as="targetPoint" />
          </mxGeometry>
        </mxCell>
        <mxCell id="yOCdOPUUsz1t5yYugyzH-5" value="Получение и анализ информации&amp;nbsp;&lt;br style=&quot;font-size: 15px;&quot;&gt;по предмету&lt;br style=&quot;font-size: 15px;&quot;&gt;Решение пробников экзамена." style="edgeLabel;html=1;align=center;verticalAlign=middle;resizable=0;points=[];fontSize=15;" vertex="1" connectable="0" parent="yOCdOPUUsz1t5yYugyzH-4">
          <mxGeometry x="0.3134" y="1" relative="1" as="geometry">
            <mxPoint x="127" y="9" as="offset" />
          </mxGeometry>
        </mxCell>
        <mxCell id="yOCdOPUUsz1t5yYugyzH-6" style="edgeStyle=orthogonalEdgeStyle;rounded=0;orthogonalLoop=1;jettySize=auto;html=1;exitX=1;exitY=0.5;exitDx=0;exitDy=0;startArrow=none;startFill=0;endArrow=block;endFill=1;" edge="1" parent="1" source="yOCdOPUUsz1t5yYugyzH-10">
          <mxGeometry relative="1" as="geometry">
            <mxPoint x="1080" y="545" as="targetPoint" />
            <Array as="points">
              <mxPoint x="1080" y="545" />
            </Array>
          </mxGeometry>
        </mxCell>
        <mxCell id="yOCdOPUUsz1t5yYugyzH-7" value="Сдача экзамена на отлично" style="edgeLabel;html=1;align=center;verticalAlign=middle;resizable=0;points=[];fontSize=15;" vertex="1" connectable="0" parent="yOCdOPUUsz1t5yYugyzH-6">
          <mxGeometry x="0.4067" y="-2" relative="1" as="geometry">
            <mxPoint y="-16" as="offset" />
          </mxGeometry>
        </mxCell>
        <mxCell id="yOCdOPUUsz1t5yYugyzH-8" style="edgeStyle=orthogonalEdgeStyle;rounded=0;orthogonalLoop=1;jettySize=auto;html=1;exitX=0.5;exitY=1;exitDx=0;exitDy=0;startArrow=block;startFill=1;endArrow=none;endFill=0;" edge="1" parent="1" source="yOCdOPUUsz1t5yYugyzH-10">
          <mxGeometry relative="1" as="geometry">
            <mxPoint x="804" y="740" as="targetPoint" />
          </mxGeometry>
        </mxCell>
        <mxCell id="yOCdOPUUsz1t5yYugyzH-9" value="Преподаватель" style="edgeLabel;html=1;align=center;verticalAlign=middle;resizable=0;points=[];fontSize=15;" vertex="1" connectable="0" parent="yOCdOPUUsz1t5yYugyzH-8">
          <mxGeometry x="0.2461" y="1" relative="1" as="geometry">
            <mxPoint x="105" y="7" as="offset" />
          </mxGeometry>
        </mxCell>
        <mxCell id="yOCdOPUUsz1t5yYugyzH-10" value="Получение оценки &lt;br&gt;&quot;Отлично&quot;" style="html=1;fontSize=15;" vertex="1" parent="1">
          <mxGeometry x="719" y="460" width="170" height="170" as="geometry" />
        </mxCell>
        <mxCell id="yOCdOPUUsz1t5yYugyzH-11" value="Цель: описать порядок подготовки к экзамену, предполагающий получение отличной оценки." style="text;html=1;strokeColor=none;fillColor=none;align=center;verticalAlign=middle;whiteSpace=wrap;rounded=0;fontSize=15;" vertex="1" parent="1">
          <mxGeometry x="280" y="660" width="370" height="30" as="geometry" />
        </mxCell>
        <mxCell id="yOCdOPUUsz1t5yYugyzH-12" value="Точка зрения: студент" style="text;html=1;strokeColor=none;fillColor=none;align=center;verticalAlign=middle;whiteSpace=wrap;rounded=0;fontSize=15;" vertex="1" parent="1">
          <mxGeometry x="220" y="690" width="370" height="30" as="geometry" />
        </mxCell>
        <mxCell id="yOCdOPUUsz1t5yYugyzH-13" style="edgeStyle=orthogonalEdgeStyle;rounded=0;orthogonalLoop=1;jettySize=auto;html=1;exitX=0;exitY=0.5;exitDx=0;exitDy=0;endArrow=none;endFill=0;startArrow=block;startFill=1;" edge="1" parent="1">
          <mxGeometry relative="1" as="geometry">
            <mxPoint x="-230" y="-540" as="targetPoint" />
            <mxPoint x="-40" y="-540" as="sourcePoint" />
          </mxGeometry>
        </mxCell>
        <mxCell id="yOCdOPUUsz1t5yYugyzH-14" value="Поступление в автошколу" style="edgeLabel;html=1;align=center;verticalAlign=middle;resizable=0;points=[];fontSize=15;" vertex="1" connectable="0" parent="yOCdOPUUsz1t5yYugyzH-13">
          <mxGeometry x="0.2316" y="-3" relative="1" as="geometry">
            <mxPoint x="7" y="-7" as="offset" />
          </mxGeometry>
        </mxCell>
        <mxCell id="yOCdOPUUsz1t5yYugyzH-15" style="edgeStyle=orthogonalEdgeStyle;rounded=0;orthogonalLoop=1;jettySize=auto;html=1;exitX=0.5;exitY=0;exitDx=0;exitDy=0;startArrow=block;startFill=1;endArrow=block;endFill=1;entryX=0.5;entryY=0;entryDx=0;entryDy=0;" edge="1" parent="1" source="yOCdOPUUsz1t5yYugyzH-20" target="yOCdOPUUsz1t5yYugyzH-34">
          <mxGeometry relative="1" as="geometry">
            <mxPoint x="1437" y="-400" as="targetPoint" />
            <Array as="points">
              <mxPoint x="535" y="-600" />
              <mxPoint x="1355" y="-600" />
            </Array>
          </mxGeometry>
        </mxCell>
        <mxCell id="yOCdOPUUsz1t5yYugyzH-16" value="&lt;span style=&quot;font-family: Arial; font-size: 15px; font-weight: 700; text-align: start;&quot;&gt;Постановление Правительства РФ от 24.10.2014 N 1097&lt;/span&gt;" style="edgeLabel;html=1;align=center;verticalAlign=middle;resizable=0;points=[];fontSize=15;" vertex="1" connectable="0" parent="yOCdOPUUsz1t5yYugyzH-15">
          <mxGeometry x="-0.4016" y="3" relative="1" as="geometry">
            <mxPoint x="93" y="-17" as="offset" />
          </mxGeometry>
        </mxCell>
        <mxCell id="yOCdOPUUsz1t5yYugyzH-17" style="edgeStyle=orthogonalEdgeStyle;rounded=0;orthogonalLoop=1;jettySize=auto;html=1;exitX=1;exitY=0.5;exitDx=0;exitDy=0;entryX=0;entryY=0.25;entryDx=0;entryDy=0;startArrow=none;startFill=0;endArrow=block;endFill=1;" edge="1" parent="1" source="yOCdOPUUsz1t5yYugyzH-20" target="yOCdOPUUsz1t5yYugyzH-26">
          <mxGeometry relative="1" as="geometry" />
        </mxCell>
        <mxCell id="yOCdOPUUsz1t5yYugyzH-18" value="Знания" style="edgeLabel;html=1;align=center;verticalAlign=middle;resizable=0;points=[];fontSize=15;" vertex="1" connectable="0" parent="yOCdOPUUsz1t5yYugyzH-17">
          <mxGeometry x="-0.1" y="-1" relative="1" as="geometry">
            <mxPoint x="21" y="10" as="offset" />
          </mxGeometry>
        </mxCell>
        <mxCell id="yOCdOPUUsz1t5yYugyzH-19" style="edgeStyle=orthogonalEdgeStyle;rounded=0;orthogonalLoop=1;jettySize=auto;html=1;exitX=0.5;exitY=1;exitDx=0;exitDy=0;startArrow=block;startFill=1;endArrow=none;endFill=0;" edge="1" parent="1" source="yOCdOPUUsz1t5yYugyzH-20">
          <mxGeometry relative="1" as="geometry">
            <mxPoint x="535" y="280" as="targetPoint" />
          </mxGeometry>
        </mxCell>
        <mxCell id="yOCdOPUUsz1t5yYugyzH-20" value="Изучение теории" style="html=1;fontSize=15;" vertex="1" parent="1">
          <mxGeometry x="440" y="-360" width="190" height="80" as="geometry" />
        </mxCell>
        <mxCell id="yOCdOPUUsz1t5yYugyzH-21" style="edgeStyle=orthogonalEdgeStyle;rounded=0;orthogonalLoop=1;jettySize=auto;html=1;exitX=0.5;exitY=0;exitDx=0;exitDy=0;startArrow=block;startFill=1;endArrow=none;endFill=0;" edge="1" parent="1" source="yOCdOPUUsz1t5yYugyzH-26">
          <mxGeometry relative="1" as="geometry">
            <mxPoint x="805" y="-600" as="targetPoint" />
          </mxGeometry>
        </mxCell>
        <mxCell id="yOCdOPUUsz1t5yYugyzH-22" style="edgeStyle=orthogonalEdgeStyle;rounded=0;orthogonalLoop=1;jettySize=auto;html=1;exitX=0.5;exitY=1;exitDx=0;exitDy=0;startArrow=block;startFill=1;endArrow=none;endFill=0;" edge="1" parent="1" source="yOCdOPUUsz1t5yYugyzH-26">
          <mxGeometry relative="1" as="geometry">
            <mxPoint x="805" y="280" as="targetPoint" />
          </mxGeometry>
        </mxCell>
        <mxCell id="yOCdOPUUsz1t5yYugyzH-23" style="edgeStyle=orthogonalEdgeStyle;rounded=0;orthogonalLoop=1;jettySize=auto;html=1;exitX=0;exitY=0.5;exitDx=0;exitDy=0;startArrow=block;startFill=1;endArrow=none;endFill=0;" edge="1" parent="1" source="yOCdOPUUsz1t5yYugyzH-26">
          <mxGeometry relative="1" as="geometry">
            <mxPoint x="50" y="-330" as="targetPoint" />
            <Array as="points">
              <mxPoint x="50" y="-180" />
              <mxPoint x="50" y="-320" />
            </Array>
          </mxGeometry>
        </mxCell>
        <mxCell id="yOCdOPUUsz1t5yYugyzH-24" style="edgeStyle=orthogonalEdgeStyle;rounded=0;orthogonalLoop=1;jettySize=auto;html=1;exitX=1;exitY=0.5;exitDx=0;exitDy=0;entryX=0;entryY=0.25;entryDx=0;entryDy=0;startArrow=none;startFill=0;endArrow=block;endFill=1;" edge="1" parent="1" source="yOCdOPUUsz1t5yYugyzH-26" target="yOCdOPUUsz1t5yYugyzH-32">
          <mxGeometry relative="1" as="geometry" />
        </mxCell>
        <mxCell id="yOCdOPUUsz1t5yYugyzH-25" value="Допуск к сдаче практики" style="edgeLabel;html=1;align=center;verticalAlign=middle;resizable=0;points=[];fontSize=15;" vertex="1" connectable="0" parent="yOCdOPUUsz1t5yYugyzH-24">
          <mxGeometry x="-0.13" y="-2" relative="1" as="geometry">
            <mxPoint x="37" y="-2" as="offset" />
          </mxGeometry>
        </mxCell>
        <mxCell id="yOCdOPUUsz1t5yYugyzH-26" value="Сдача теории" style="html=1;fontSize=15;" vertex="1" parent="1">
          <mxGeometry x="710" y="-220" width="190" height="80" as="geometry" />
        </mxCell>
        <mxCell id="yOCdOPUUsz1t5yYugyzH-27" style="edgeStyle=orthogonalEdgeStyle;rounded=0;orthogonalLoop=1;jettySize=auto;html=1;exitX=0.5;exitY=0;exitDx=0;exitDy=0;startArrow=block;startFill=1;endArrow=none;endFill=0;" edge="1" parent="1" source="yOCdOPUUsz1t5yYugyzH-32">
          <mxGeometry relative="1" as="geometry">
            <mxPoint x="1080" y="-600" as="targetPoint" />
            <Array as="points">
              <mxPoint x="1085" y="-600" />
            </Array>
          </mxGeometry>
        </mxCell>
        <mxCell id="yOCdOPUUsz1t5yYugyzH-28" style="edgeStyle=orthogonalEdgeStyle;rounded=0;orthogonalLoop=1;jettySize=auto;html=1;exitX=0.5;exitY=1;exitDx=0;exitDy=0;startArrow=block;startFill=1;endArrow=none;endFill=0;" edge="1" parent="1" source="yOCdOPUUsz1t5yYugyzH-32">
          <mxGeometry relative="1" as="geometry">
            <mxPoint x="1085" y="280" as="targetPoint" />
          </mxGeometry>
        </mxCell>
        <mxCell id="yOCdOPUUsz1t5yYugyzH-29" style="edgeStyle=orthogonalEdgeStyle;rounded=0;orthogonalLoop=1;jettySize=auto;html=1;exitX=1;exitY=0.5;exitDx=0;exitDy=0;entryX=0;entryY=0.25;entryDx=0;entryDy=0;startArrow=none;startFill=0;endArrow=block;endFill=1;" edge="1" parent="1" source="yOCdOPUUsz1t5yYugyzH-32" target="yOCdOPUUsz1t5yYugyzH-34">
          <mxGeometry relative="1" as="geometry" />
        </mxCell>
        <mxCell id="yOCdOPUUsz1t5yYugyzH-30" value="Навыки" style="edgeLabel;html=1;align=center;verticalAlign=middle;resizable=0;points=[];fontSize=14;" vertex="1" connectable="0" parent="yOCdOPUUsz1t5yYugyzH-29">
          <mxGeometry x="-0.21" y="2" relative="1" as="geometry">
            <mxPoint x="28" y="31" as="offset" />
          </mxGeometry>
        </mxCell>
        <mxCell id="yOCdOPUUsz1t5yYugyzH-31" style="edgeStyle=orthogonalEdgeStyle;rounded=0;orthogonalLoop=1;jettySize=auto;html=1;exitX=0;exitY=0.5;exitDx=0;exitDy=0;startArrow=block;startFill=1;endArrow=none;endFill=0;" edge="1" parent="1" source="yOCdOPUUsz1t5yYugyzH-32">
          <mxGeometry relative="1" as="geometry">
            <mxPoint x="50" y="-330" as="targetPoint" />
            <Array as="points">
              <mxPoint x="50" y="-50" />
              <mxPoint x="50" y="-320" />
            </Array>
          </mxGeometry>
        </mxCell>
        <mxCell id="yOCdOPUUsz1t5yYugyzH-32" value="Подготовка к практике" style="html=1;fontSize=15;" vertex="1" parent="1">
          <mxGeometry x="990" y="-90" width="190" height="80" as="geometry" />
        </mxCell>
        <mxCell id="yOCdOPUUsz1t5yYugyzH-33" style="edgeStyle=orthogonalEdgeStyle;rounded=0;orthogonalLoop=1;jettySize=auto;html=1;exitX=0.526;exitY=0.996;exitDx=0;exitDy=0;startArrow=block;startFill=1;endArrow=none;endFill=0;exitPerimeter=0;" edge="1" parent="1" source="yOCdOPUUsz1t5yYugyzH-34">
          <mxGeometry relative="1" as="geometry">
            <mxPoint x="1360" y="280" as="targetPoint" />
          </mxGeometry>
        </mxCell>
        <mxCell id="yOCdOPUUsz1t5yYugyzH-34" value="Сдача практики" style="html=1;fontSize=15;" vertex="1" parent="1">
          <mxGeometry x="1260" y="50" width="190" height="80" as="geometry" />
        </mxCell>
        <mxCell id="yOCdOPUUsz1t5yYugyzH-35" value="Учитель" style="edgeLabel;html=1;align=center;verticalAlign=middle;resizable=0;points=[];fontSize=15;" vertex="1" connectable="0" parent="1">
          <mxGeometry x="670" y="260" as="geometry">
            <mxPoint x="87" y="-9" as="offset" />
          </mxGeometry>
        </mxCell>
        <mxCell id="yOCdOPUUsz1t5yYugyzH-36" style="edgeStyle=orthogonalEdgeStyle;rounded=0;orthogonalLoop=1;jettySize=auto;html=1;startArrow=block;startFill=1;endArrow=none;endFill=0;" edge="1" parent="1">
          <mxGeometry relative="1" as="geometry">
            <mxPoint x="1260" y="100" as="sourcePoint" />
            <mxPoint x="50" y="100" as="targetPoint" />
            <Array as="points">
              <mxPoint x="320" y="100" />
            </Array>
          </mxGeometry>
        </mxCell>
        <mxCell id="yOCdOPUUsz1t5yYugyzH-37" style="edgeStyle=orthogonalEdgeStyle;rounded=0;orthogonalLoop=1;jettySize=auto;html=1;exitX=1;exitY=0.5;exitDx=0;exitDy=0;startArrow=none;startFill=0;endArrow=block;endFill=1;" edge="1" parent="1">
          <mxGeometry relative="1" as="geometry">
            <mxPoint x="1640" y="89.38" as="targetPoint" />
            <mxPoint x="1450" y="89.38" as="sourcePoint" />
            <Array as="points">
              <mxPoint x="1630" y="89.38" />
              <mxPoint x="1630" y="89.38" />
            </Array>
          </mxGeometry>
        </mxCell>
        <mxCell id="yOCdOPUUsz1t5yYugyzH-38" value="Получение прав" style="edgeLabel;html=1;align=center;verticalAlign=middle;resizable=0;points=[];fontSize=15;" vertex="1" connectable="0" parent="yOCdOPUUsz1t5yYugyzH-37">
          <mxGeometry x="-0.3895" y="3" relative="1" as="geometry">
            <mxPoint x="11" y="-16" as="offset" />
          </mxGeometry>
        </mxCell>
        <mxCell id="yOCdOPUUsz1t5yYugyzH-39" value="Учитель" style="edgeLabel;html=1;align=center;verticalAlign=middle;resizable=0;points=[];fontSize=15;" vertex="1" connectable="0" parent="1">
          <mxGeometry x="940" y="260" as="geometry">
            <mxPoint x="87" y="-9" as="offset" />
          </mxGeometry>
        </mxCell>
        <mxCell id="yOCdOPUUsz1t5yYugyzH-40" value="Экзаменатор" style="edgeLabel;html=1;align=center;verticalAlign=middle;resizable=0;points=[];fontSize=15;" vertex="1" connectable="0" parent="1">
          <mxGeometry x="1220" y="260" as="geometry">
            <mxPoint x="87" y="-9" as="offset" />
          </mxGeometry>
        </mxCell>
        <mxCell id="yOCdOPUUsz1t5yYugyzH-41" style="edgeStyle=orthogonalEdgeStyle;rounded=0;orthogonalLoop=1;jettySize=auto;html=1;exitX=0;exitY=0.5;exitDx=0;exitDy=0;startArrow=block;startFill=1;endArrow=none;endFill=0;" edge="1" parent="1" source="yOCdOPUUsz1t5yYugyzH-46">
          <mxGeometry relative="1" as="geometry">
            <mxPoint x="50" y="-430" as="targetPoint" />
          </mxGeometry>
        </mxCell>
        <mxCell id="yOCdOPUUsz1t5yYugyzH-42" style="edgeStyle=orthogonalEdgeStyle;rounded=0;orthogonalLoop=1;jettySize=auto;html=1;exitX=0.5;exitY=0;exitDx=0;exitDy=0;startArrow=block;startFill=1;endArrow=none;endFill=0;" edge="1" parent="1" source="yOCdOPUUsz1t5yYugyzH-46">
          <mxGeometry relative="1" as="geometry">
            <mxPoint x="275" y="-600" as="targetPoint" />
            <Array as="points">
              <mxPoint x="285" y="-600" />
            </Array>
          </mxGeometry>
        </mxCell>
        <mxCell id="yOCdOPUUsz1t5yYugyzH-43" style="edgeStyle=orthogonalEdgeStyle;rounded=0;orthogonalLoop=1;jettySize=auto;html=1;exitX=1;exitY=0.25;exitDx=0;exitDy=0;entryX=0;entryY=0.25;entryDx=0;entryDy=0;startArrow=none;startFill=0;endArrow=block;endFill=1;" edge="1" parent="1" source="yOCdOPUUsz1t5yYugyzH-46" target="yOCdOPUUsz1t5yYugyzH-20">
          <mxGeometry relative="1" as="geometry">
            <Array as="points">
              <mxPoint x="380" y="-440" />
              <mxPoint x="410" y="-440" />
              <mxPoint x="410" y="-340" />
            </Array>
          </mxGeometry>
        </mxCell>
        <mxCell id="yOCdOPUUsz1t5yYugyzH-44" value="Справка" style="edgeLabel;html=1;align=center;verticalAlign=middle;resizable=0;points=[];fontSize=15;" vertex="1" connectable="0" parent="yOCdOPUUsz1t5yYugyzH-43">
          <mxGeometry x="0.2706" relative="1" as="geometry">
            <mxPoint x="40" y="-28" as="offset" />
          </mxGeometry>
        </mxCell>
        <mxCell id="yOCdOPUUsz1t5yYugyzH-45" style="edgeStyle=orthogonalEdgeStyle;rounded=0;orthogonalLoop=1;jettySize=auto;html=1;exitX=0.5;exitY=1;exitDx=0;exitDy=0;startArrow=block;startFill=1;endArrow=none;endFill=0;" edge="1" parent="1" source="yOCdOPUUsz1t5yYugyzH-46">
          <mxGeometry relative="1" as="geometry">
            <mxPoint x="285" y="280" as="targetPoint" />
          </mxGeometry>
        </mxCell>
        <mxCell id="yOCdOPUUsz1t5yYugyzH-46" value="Прохождение мед осмотра" style="html=1;fontSize=15;" vertex="1" parent="1">
          <mxGeometry x="190" y="-470" width="190" height="80" as="geometry" />
        </mxCell>
        <mxCell id="yOCdOPUUsz1t5yYugyzH-47" style="edgeStyle=orthogonalEdgeStyle;rounded=0;orthogonalLoop=1;jettySize=auto;html=1;exitX=1;exitY=0.5;exitDx=0;exitDy=0;entryX=0;entryY=0.25;entryDx=0;entryDy=0;startArrow=none;startFill=0;endArrow=block;endFill=1;" edge="1" parent="1" source="yOCdOPUUsz1t5yYugyzH-49" target="yOCdOPUUsz1t5yYugyzH-46">
          <mxGeometry relative="1" as="geometry" />
        </mxCell>
        <mxCell id="yOCdOPUUsz1t5yYugyzH-48" value="Документ о&lt;br&gt;зачислении" style="edgeLabel;html=1;align=center;verticalAlign=middle;resizable=0;points=[];fontSize=15;" vertex="1" connectable="0" parent="yOCdOPUUsz1t5yYugyzH-47">
          <mxGeometry x="-0.1692" y="1" relative="1" as="geometry">
            <mxPoint x="39" y="-4" as="offset" />
          </mxGeometry>
        </mxCell>
        <mxCell id="yOCdOPUUsz1t5yYugyzH-49" value="Зачисление в группу" style="html=1;fontSize=15;" vertex="1" parent="1">
          <mxGeometry x="-40" y="-580" width="190" height="80" as="geometry" />
        </mxCell>
        <mxCell id="yOCdOPUUsz1t5yYugyzH-50" value="Врач" style="edgeLabel;html=1;align=center;verticalAlign=middle;resizable=0;points=[];fontSize=15;" vertex="1" connectable="0" parent="1">
          <mxGeometry x="170" y="260" as="geometry">
            <mxPoint x="87" y="-9" as="offset" />
          </mxGeometry>
        </mxCell>
        <mxCell id="yOCdOPUUsz1t5yYugyzH-51" value="Заведующий" style="edgeLabel;html=1;align=center;verticalAlign=middle;resizable=0;points=[];fontSize=15;" vertex="1" connectable="0" parent="1">
          <mxGeometry x="-100" y="260" as="geometry">
            <mxPoint x="87" y="-9" as="offset" />
          </mxGeometry>
        </mxCell>
        <mxCell id="yOCdOPUUsz1t5yYugyzH-52" value="" style="endArrow=none;html=1;rounded=0;fontSize=15;" edge="1" parent="1">
          <mxGeometry width="50" height="50" relative="1" as="geometry">
            <mxPoint x="430" y="-320" as="sourcePoint" />
            <mxPoint x="1360" y="280" as="targetPoint" />
            <Array as="points">
              <mxPoint x="50" y="-320" />
              <mxPoint x="50" y="280" />
            </Array>
          </mxGeometry>
        </mxCell>
        <mxCell id="yOCdOPUUsz1t5yYugyzH-53" value="" style="endArrow=classic;html=1;rounded=0;fontSize=15;entryX=0;entryY=0.5;entryDx=0;entryDy=0;" edge="1" parent="1" target="yOCdOPUUsz1t5yYugyzH-20">
          <mxGeometry width="50" height="50" relative="1" as="geometry">
            <mxPoint x="360" y="-320" as="sourcePoint" />
            <mxPoint x="410" y="-370" as="targetPoint" />
          </mxGeometry>
        </mxCell>
        <mxCell id="yOCdOPUUsz1t5yYugyzH-54" value="" style="endArrow=none;html=1;rounded=0;fontSize=15;" edge="1" parent="1">
          <mxGeometry width="50" height="50" relative="1" as="geometry">
            <mxPoint x="50" y="-600" as="sourcePoint" />
            <mxPoint x="540" y="-600" as="targetPoint" />
          </mxGeometry>
        </mxCell>
        <mxCell id="yOCdOPUUsz1t5yYugyzH-55" value="" style="endArrow=classic;html=1;rounded=0;fontSize=15;entryX=0.473;entryY=-0.012;entryDx=0;entryDy=0;entryPerimeter=0;" edge="1" parent="1" target="yOCdOPUUsz1t5yYugyzH-49">
          <mxGeometry width="50" height="50" relative="1" as="geometry">
            <mxPoint x="50" y="-600" as="sourcePoint" />
            <mxPoint x="140" y="-690" as="targetPoint" />
          </mxGeometry>
        </mxCell>
        <mxCell id="yOCdOPUUsz1t5yYugyzH-56" value="" style="endArrow=classic;html=1;rounded=0;fontSize=15;entryX=0.47;entryY=0.989;entryDx=0;entryDy=0;entryPerimeter=0;" edge="1" parent="1" target="yOCdOPUUsz1t5yYugyzH-49">
          <mxGeometry width="50" height="50" relative="1" as="geometry">
            <mxPoint x="1360" y="210" as="sourcePoint" />
            <mxPoint x="40" y="-460" as="targetPoint" />
            <Array as="points">
              <mxPoint x="50" y="210" />
              <mxPoint x="50" y="-140" />
            </Array>
          </mxGeometry>
        </mxCell>
        <mxCell id="yOCdOPUUsz1t5yYugyzH-57" value="Учитель" style="edgeLabel;html=1;align=center;verticalAlign=middle;resizable=0;points=[];fontSize=15;" vertex="1" connectable="0" parent="1">
          <mxGeometry x="400" y="260" as="geometry">
            <mxPoint x="87" y="-9" as="offset" />
          </mxGeometry>
        </mxCell>
      </root>
    </mxGraphModel>
  </diagram>
</mxfile>
